<?xml version="1.0" encoding="utf-8"?>
<!-- Generator: Adobe Illustrator 21.1.0, SVG Export Plug-In . SVG Version: 6.00 Build 0)  -->
<svg version="1.1" id="Layer_1" xmlns="http://www.w3.org/2000/svg" xmlns:xlink="http://www.w3.org/1999/xlink" x="0px" y="0px"
	 viewBox="0 0 60 60" style="enable-background:new 0 0 60 60;" xml:space="preserve">
<style type="text/css">
	.st0{fill:none;stroke:#51DADC;stroke-miterlimit:10;}
	.st1{fill:none;stroke:#000000;stroke-miterlimit:10;}
</style>
<circle class="st0" cx="30" cy="30" r="29.5"/>
<g>
	
		<rect x="32.9" y="41.1" transform="matrix(0.7071 -0.7071 0.7071 0.7071 -20.7935 38.5926)" class="st1" width="6.6" height="6.6"/>
	
		<rect x="15.1" y="34.5" transform="matrix(0.7071 -0.7071 0.7071 0.7071 -21.3589 24.1318)" class="st1" width="6.6" height="6.6"/>
	<rect x="26.4" y="22.7" transform="matrix(0.7071 -0.7071 0.7071 0.7071 -9.6908 28.6229)" class="st1" width="6.6" height="6.6"/>
	
		<rect x="26.4" y="34.5" transform="matrix(0.7071 -0.7071 0.7071 0.7071 -18.0624 32.0905)" class="st1" width="6.6" height="6.6"/>
	<rect x="37.3" y="11.6" transform="matrix(0.7071 -0.7071 0.7071 0.7071 1.3488 33.1009)" class="st1" width="6.6" height="6.6"/>
	
		<rect x="15.1" y="22.7" transform="matrix(0.7071 -0.7071 0.7071 0.7071 -12.9874 20.6643)" class="st1" width="6.6" height="6.6"/>
</g>
</svg>
